# xmcd
# Track frame offsets:
# 150
# 15116
# 28162
# 40000
# 68504
#
# Disc length: 1155 seconds
# Revision: 0
# Processed by: cddbd v1.5.2PL0 Copyright (c) Steve Scherf et al.
# Submitted via: VisiTrax 2.10.2.252 - For more info visit www.synapsa.com
#
DISCID=2c048105
DTITLE=Henry and Some Kind Of Blues - Hear the train a coming
DYEAR=2010
DGENRE=Blues
TTITLE0=Little Walter - My Babe
TTITLE1=Rufus Thomas - Walkin´ the dog
TTITLE2=Henry Matsson - Too late I found out
TTITLE3=Bo Diddley - Before you accuse me
TTITLE4=Muddy Waters - Got my mojo working
EXTD=
EXTT0=
EXTT1=
EXTT2=
EXTT3=
EXTT4=
PLAYORDER=
